# AST/ASF file generated using VICON BodyLanguage
# -----------------------------------------------
:version 1.10
:name VICON
:units
  mass 1.0
  length 0.45
  angle deg
:documentation
   .ast/.asf automatically generated from VICON data using
   VICON BodyBuilder and BodyLanguage model FoxedUp or BRILLIANT.MOD
:root
   order TX TY TZ RX RY RZ
   axis XYZ
   position 0 0 0  
   orientation 0 0 0 
:bonedata
  begin
     id 1 
     name lhipjoint
     direction 0.537252 -0.787203 0.302774 
     length 2.29576 
     axis 0 0 0  XYZ
  end
  begin
     id 2 
     name lfemur
     direction 0.34202 -0.939693 0  
     length 7.31114  
     axis 0 0 20  XYZ
    dof rx ry rz
    limits (-160.0 20.0)
           (-70.0 70.0)
           (-60.0 70.0)
  end
  begin
     id 3 
     name ltibia
     direction 0.34202 -0.939693 0   
     length 8.36008   
     axis 0 0 20   XYZ
    dof rx
    limits (-10.0 170.0)
  end
  begin
     id 4 
     name lfoot
     direction 0.0969116 -0.266263 0.959016   
     length 2.16704   
     axis -90 7.62852e-016 20   XYZ
    dof rx rz
    limits (-45.0 90.0)
           (-70.0 20.0)
  end
  begin
     id 5 
     name ltoes
     direction 1.53563e-011 -4.21779e-011 1   
     length 1.08338   
     axis -90 7.62852e-016 20   XYZ
    dof rx
    limits (-90.0 20.0)
  end
  begin
     id 6 
     name rhipjoint
     direction -0.588228 -0.754791 0.290308   
     length 2.39434  
     axis 0 0 0  XYZ 
  end
  begin
     id 7 
     name rfemur
     direction -0.34202 -0.939693 0   
     length 7.45207   
     axis 0 0 -20   XYZ
    dof rx ry rz
    limits (-160.0 20.0)
           (-70.0 70.0)
           (-70.0 60.0)
  end
  begin
     id 8 
     name rtibia
     direction -0.34202 -0.939693 0   
     length 8.03565   
     axis 0 0 -20   XYZ
    dof rx
    limits (-10.0 170.0)
 end
 begin
     id 9 
     name rfoot
     direction -0.107009 -0.294004 0.949795   
     length 2.11509  
     axis -90 -7.62852e-016 -20   XYZ
    dof rx rz
    limits (-45.0 90.0)
           (-20.0 70.0)
  end
  begin
     id 10 
     name rtoes
     direction -1.53533e-011 -4.22004e-011 1   
     length 1.05493   
     axis -90 -7.62852e-016 -20   XYZ
    dof rx
    limits (-90.0 20.0)
  end
  begin
     id 11 
     name lowerback
     direction -0.0115208 0.997969 -0.0626515   
     length 2.03153   
     axis 0 0 0   XYZ
    dof rx ry rz
    limits (-20.0 45.0)
           (-30.0 30.0)
           (-30.0 30.0)
  end
  begin
     id 12 
     name upperback
     direction -0.00423475 0.999974 -0.00583614   
     length 2.03619   
     axis 0 0 0   XYZ
    dof rx ry rz
    limits (-20.0 45.0)
           (-30.0 30.0)
           (-30.0 30.0)
  end
  begin
     id 13 
     name thorax
     direction 0.00289429 0.999728 0.0231573   
     length 2.03921   
     axis 0 0 0   XYZ
    dof rx ry rz
    limits (-20.0 45.0)
           (-30.0 30.0)
           (-30.0 30.0)
  end
  begin
     id 14 
     name lowerneck
     direction 0.0188995 0.987777 0.154721   
     length 1.78836   
     axis 0 0 0   XYZ
    dof rx ry rz
    limits (-20.0 45.0)
           (-30.0 30.0)
           (-30.0 30.0)
  end
  begin
     id 15 
     name upperneck
     direction -0.00612612 0.992995 -0.118   
     length 1.81789   
     axis 0 0 0   XYZ
    dof rx ry rz
    limits (-20.0 45.0)
           (-30.0 30.0)
           (-30.0 30.0)
  end
  begin
     id 16
     name head
     direction -0.00420226 0.998397 -0.0564482  
     length 1.82234  
     axis 0 0 0   XYZ
    dof rx ry rz
    limits (-20.0 45.0)
           (-30.0 30.0)
           (-30.0 30.0)
  end
  begin
     id 17 
     name lclavicle
     direction 0.916488 0.396539 0.0529676  
     length 3.51732  
     axis 0 0 0   XYZ
    dof ry rz
    limits (-20.0 10.0)
           (0.0 20.0)
  end
  begin
     id 18 
     name lhumerus
     direction 1 -4.4896e-011 8.36962e-028   
     length 5.45077   
     axis 180 -30 -90   XYZ
    dof rx ry rz
    limits (-60.0 90.0)
           (-90.0 90.0)
           (-90.0 90.0)
  end
  begin
     id 19
     name lradius
     direction 1 -4.48962e-011 3.01407e-027   
     length 3.05488   
     axis 180 -30 -90   XYZ
    dof rx
    limits (-10.0 170.0)
  end
  begin
     id 20
     name lwrist
     direction 1 -4.49002e-011 4.72961e-027   
     length 1.52744   
     axis -2.72261e-015 90 90   XYZ
    dof ry
    limits (-180.0 0.0)
 end
  begin
     id 21 
     name lhand
     direction 1 -4.4899e-011 9.45681e-027   
     length 0.638818   
     axis -6.0311e-015 90 90   XYZ
    dof rx rz
    limits (-90.0 90.0)
           (-45.0 45.0)
  end
  begin
     id 22 
     name lfingers
     direction 1 -4.48871e-011 1.88632e-026   
     length 0.515032   
     axis -1.20625e-014 90 90   XYZ
    dof rx
    limits (0.0 90.0)
  end
  begin
     id 23
     name lthumb
     direction 0.707107 -6.34964e-011 0.707107   
     length 0.739485   
     axis -90 45 6.32835e-014   XYZ
    dof rx rz
    limits (-45.0 45.0)
           (-45.0 45.0)
  end
  begin
     id 24 
     name rclavicle
     direction -0.949427 0.303202 0.0815894   
     length 3.76167  
     axis 0 0 0   XYZ 
    dof ry rz
    limits (-10.0 20.0)
           (-20.0 0.0)
  end
  begin
     id 25 
     name rhumerus
     direction -1 -4.48971e-011 -6.43969e-018  
     length 4.88702   
     axis 180 30 90   XYZ
    dof rx ry rz
    limits (-90.0 60.0)
           (-90.0 90.0)
           (-90.0 90.0)
  end
  begin
     id 26 
     name rradius
     direction -1 -4.48987e-011 5.46662e-027   
     length 3.22603   
     axis 180 30 90   XYZ
    dof rx
    limits (-10.0 170.0)
  end
  begin
     id 27 
     name rwrist
     direction -1 -4.48956e-011 4.72476e-027   
     length 1.61302   
     axis -2.72261e-015 -90 -90   XYZ
    dof ry
    limits (-180.0 0.0)
  end
  begin
     id 28
     name rhand
     direction -1 -4.4889e-011 9.43571e-027   
     length 0.716293   
     axis -6.0311e-015 -90 -90   XYZ
    dof rx rz
    limits (-90.0 90.0)
           (-45.0 45.0)
  end
  begin
     id 29
     name rfingers
     direction -1 -4.48887e-011 1.88701e-026   
     length 0.577494   
     axis -1.20625e-014 -90 -90   XYZ
    dof rx
    limits (0.0 90.0)
  end
  begin
     id 30
     name rthumb
     direction -0.707107 -6.34825e-011 0.707107   
     length 0.829169   
     axis -90 -45 -6.32835e-014   XYZ
    dof rx rz
    limits (-45.0 45.0)
           (-45.0 45.0)
  end
:hierarchy
  begin
    root lhipjoint rhipjoint lowerback
    lhipjoint lfemur
    lfemur ltibia
    ltibia lfoot
    lfoot ltoes
    rhipjoint rfemur
    rfemur rtibia
    rtibia rfoot
    rfoot rtoes
    lowerback upperback
    upperback thorax
    thorax lowerneck lclavicle rclavicle
    lowerneck upperneck
    upperneck head
    lclavicle lhumerus
    lhumerus lradius
    lradius lwrist
    lwrist lhand lthumb
    lhand lfingers
    rclavicle rhumerus
    rhumerus rradius
    rradius rwrist
    rwrist rhand rthumb
    rhand rfingers
  end

#!OML:ASF F:\VICON\USERDATA\INSTALL\rory3\rory3.ASF
:FULLY-SPECIFIED
:DEGREES
901
root 1.40945 18.5537 0.580962 180.179 82.698 168.88
lowerback -9.04732 1.38294 0.13071
upperback -1.92525 1.95113 -1.61366
thorax 3.13374 1.00468 -1.51533
lowerneck -16.8895 -7.4395 -1.34605
upperneck 23.3592 -10.9966 4.50311
head 10.635 -4.484 0.286262
rclavicle 6.63444e-015 -4.57205e-015
rhumerus 38.8446 45.3068 -33.4322
rradius 84.5498
rwrist 208.933
rhand -41.7377 0.875343
rfingers 7.12502
rthumb -14.6425 -28.5877
lclavicle 6.63444e-015 -4.57205e-015
lhumerus -55.72 -17.1162 89.6032
lradius 66.1442
lwrist -8.01644
lhand -2.17528 25.8429
lfingers 7.12502
lthumb 23.5053 54.4268
rfemur -5.04277 -9.47049 17.9333
rtibia 3.97569e-015
rfoot -5.85277 2.43633
rtoes -9.65114
lfemur -15.7455 6.28095 -18.9957
ltibia 17.0365
lfoot -12.0386 -7.59101
ltoes -27.2941
902
root 1.40896 18.5543 0.577279 180.317 82.6918 169.048
lowerback -9.01636 1.36156 0.138299
upperback -1.91817 1.92004 -1.58324
thorax 3.12218 0.988887 -1.49238
lowerneck -16.8635 -7.41613 -1.32422
upperneck 23.2763 -10.9544 4.4589
head 10.5938 -4.47335 0.275572
rclavicle 4.07633e-014 3.18055e-015
rhumerus 37.9688 45.2553 -34.7586
rradius 84.5473
rwrist 208.455
rhand -41.8256 0.955995
rfingers 7.12502
rthumb -14.7272 -28.5009
lclavicle 4.07633e-014 3.18055e-015
lhumerus -55.6898 -16.9805 89.6123
lradius 66.1626
lwrist -8.14434
lhand -2.12698 25.9517
lfingers 7.12502
lthumb 23.5516 54.5297
rfemur -5.00845 -9.41286 17.9263
rtibia 0
rfoot -5.84655 2.37555
rtoes -9.27677
lfemur -15.6939 6.34662 -18.9852
ltibia 17.004
lfoot -11.786 -7.7243
ltoes -26.4407
903
root 1.4093 18.5548 0.574832 179.906 82.6821 168.637
lowerback -9.01319 1.34711 0.0540903
upperback -1.92972 1.90901 -1.58198
thorax 3.10542 0.982847 -1.44525
lowerneck -16.8094 -7.39471 -1.30505
upperneck 23.2065 -10.9226 4.44971
head 10.5551 -4.46275 0.276985
rclavicle 4.88265e-015 1.17283e-014
rhumerus 37.1038 45.2976 -35.9379
rradius 84.6146
rwrist 208.517
rhand -41.6775 0.810782
rfingers 7.12502
rthumb -14.5845 -28.6565
lclavicle 4.88265e-015 1.17283e-014
lhumerus -55.6999 -16.9159 89.6389
lradius 66.2353
lwrist -8.17308
lhand -2.03979 26.2449
lfingers 7.12502
lthumb 23.6352 54.8121
rfemur -4.98969 -9.36043 17.8486
rtibia 7.15625e-015
rfoot -5.86302 2.36708
rtoes -9.47739
lfemur -15.6761 6.29096 -19.0463
ltibia 16.983
lfoot -11.6263 -7.7088
ltoes -25.9054
904
root 1.41079 18.5546 0.572787 179.671 82.6891 168.378
lowerback -9.08712 1.3442 0.0287336
upperback -1.90857 1.90893 -1.59544
thorax 3.16799 0.982796 -1.44293
lowerneck -16.8678 -7.37606 -1.28997
upperneck 23.181 -10.9035 4.45905
head 10.556 -4.45182 0.278657
rclavicle -1.27719e-014 1.66979e-014
rhumerus 36.2787 45.2909 -37.0715
rradius 84.7361
rwrist 208.631
rhand -41.66 0.989263
rfingers 7.12502
rthumb -14.5676 -28.4792
lclavicle -1.27719e-014 1.66979e-014
lhumerus -55.6715 -16.9217 89.6348
lradius 66.3637
lwrist -8.20924
lhand -2.02407 26.5359
lfingers 7.12502
lthumb 23.6503 55.1012
rfemur -5.00967 -9.29142 17.7959
rtibia 9.54166e-015
rfoot -5.84745 2.27083
rtoes -9.30933
lfemur -15.7086 6.20751 -19.0815
ltibia 17.0013
lfoot -11.6128 -7.63338
ltoes -25.9068
905
root 1.41261 18.5537 0.571462 179.885 82.7273 168.583
lowerback -9.11548 1.34913 0.0649589
upperback -1.90921 1.91187 -1.58546
thorax 3.18395 0.984537 -1.45196
lowerneck -16.8733 -7.34375 -1.30842
upperneck 23.1501 -10.8571 4.47977
head 10.5468 -4.43121 0.295704
rclavicle -1.2275e-014 2.38542e-015
rhumerus 35.4036 45.2918 -38.2489
rradius 84.8926
rwrist 208.755
rhand -41.6504 1.08178
rfingers 7.12502
rthumb -14.5583 -28.3873
lclavicle -1.2275e-014 2.38542e-015
lhumerus -55.6806 -16.8384 89.5942
lradius 66.5259
lwrist -8.28682
lhand -1.91358 26.5337
lfingers 7.12502
lthumb 23.7563 55.0852
rfemur -5.02378 -9.18815 17.8185
rtibia 7.15625e-015
rfoot -5.88435 2.17497
rtoes -8.91397
lfemur -15.7155 6.189 -19.0489
ltibia 17.0153
lfoot -11.6457 -7.57226
ltoes -25.9833
